<?xml version="1.0" standalone="no"?>
<!DOCTYPE svg PUBLIC "-//W3C//DTD SVG 20010904//EN"
 "http://www.w3.org/TR/2001/REC-SVG-20010904/DTD/svg10.dtd">
<svg version="1.0" xmlns="http://www.w3.org/2000/svg"
 width="74.000000pt" height="74.000000pt" viewBox="0 0 74.000000 74.000000"
 preserveAspectRatio="xMidYMid meet">
<metadata>
Created by potrace 1.14, written by Peter Selinger 2001-2017
</metadata>
<g transform="translate(0.000000,74.000000) scale(0.100000,-0.100000)"
fill="#000000" stroke="none">
<path d="M230 710 c0 -5 5 -10 10 -10 6 0 10 5 10 10 0 6 -4 10 -10 10 -5 0
-10 -4 -10 -10z"/>
<path d="M346 695 c10 -24 -32 -79 -116 -155 -85 -76 -101 -109 -81 -162 51
-135 325 -157 428 -34 19 23 23 38 21 74 -4 63 -29 71 -101 32 -48 -25 -57
-27 -73 -15 -17 12 -18 16 -5 37 64 102 57 176 -21 222 -33 20 -59 21 -52 1z"/>
<path d="M52 570 c-28 -26 -27 -31 1 -58 l23 -22 22 23 c27 29 27 38 2 60 -25
21 -22 21 -48 -3z"/>
<path d="M650 475 c-20 -24 4 -45 26 -24 13 14 13 17 1 27 -11 10 -17 9 -27
-3z"/>
<path d="M45 340 c-38 -14 -48 -37 -42 -89 7 -59 20 -84 67 -129 75 -73 192
-107 335 -99 151 8 270 69 314 161 32 69 26 139 -13 153 -30 10 -48 5 -74 -23
-122 -129 -365 -138 -501 -20 -58 51 -65 54 -86 46z"/>
</g>
</svg>
